<?xml version="1.0" standalone="no"?>
<!DOCTYPE svg PUBLIC "-//W3C//DTD SVG 20010904//EN"
 "http://www.w3.org/TR/2001/REC-SVG-20010904/DTD/svg10.dtd">
<svg version="1.0" xmlns="http://www.w3.org/2000/svg"
 width="512.000000pt" height="512.000000pt" viewBox="0 0 512.000000 512.000000"
 preserveAspectRatio="xMidYMid meet">
<metadata>
Created by potrace 1.11, written by Peter Selinger 2001-2013
</metadata>
<g transform="translate(0.000000,512.000000) scale(0.100000,-0.100000)"
fill="#000000" stroke="none">
<path d="M2230 5014 c-547 -77 -1035 -319 -1420 -704 -365 -364 -598 -815
-692 -1337 -20 -114 -23 -159 -23 -413 0 -318 12 -416 80 -663 228 -830 892
-1494 1722 -1722 243 -67 346 -80 653 -80 151 0 297 4 323 8 l48 8 -118 60
c-157 79 -285 172 -413 299 -227 227 -371 495 -442 823 -19 87 -22 133 -22
307 0 174 3 220 22 307 50 229 144 446 269 623 87 121 252 286 373 373 177
125 394 219 623 269 87 19 133 22 307 22 174 0 220 -3 307 -22 152 -33 275
-76 408 -142 158 -79 286 -172 415 -300 127 -128 220 -256 299 -412 l59 -118
8 43 c12 73 19 317 13 462 -28 594 -287 1174 -719 1605 -363 363 -816 598
-1331 691 -163 29 -584 36 -749 13z"/>
<path d="M3378 2590 c-149 -24 -303 -85 -429 -171 -82 -55 -193 -166 -248
-248 -63 -92 -127 -234 -153 -337 -31 -127 -31 -341 0 -468 43 -172 141 -346
267 -471 125 -126 299 -224 471 -267 127 -31 341 -31 468 0 172 43 346 141
471 267 126 125 224 299 267 471 31 127 31 341 0 468 -43 172 -141 346 -267
471 -124 125 -300 224 -465 265 -97 24 -294 34 -382 20z"/>
</g>
</svg>
